<?xml version="1.0" encoding="UTF-8" standalone="no"?>
<!DOCTYPE svg PUBLIC "-//W3C//DTD SVG 1.1//EN" "http://www.w3.org/Graphics/SVG/1.1/DTD/svg11.dtd">
<svg width="100%" height="100%" viewBox="0 0 1300 499" version="1.1" xmlns="http://www.w3.org/2000/svg" xmlns:xlink="http://www.w3.org/1999/xlink" xml:space="preserve" xmlns:serif="http://www.serif.com/" style="fill-rule:evenodd;clip-rule:evenodd;stroke-linejoin:round;stroke-miterlimit:2;">
    <g id="Ressource">
        <g id="Group-4">
            <path id="Wave" d="M0,0L1300,-0C1299.84,99.066 1299.84,259.046 1300,479.94C939.379,522.289 978.894,439.695 650,450.952C321.106,462.209 306.59,511.2 0,450.952C1,327.508 1,177.191 0,0Z" style="fill:rgb(196,196,196);fill-opacity:0.15;"/>
            <g id="Wave1" serif:id="Wave" transform="matrix(-1,0,0,1,1303,0)">
                <path d="M1.001,0L1302,0L1302,428.667C1221.61,416.745 1147.81,399.335 958.282,416.745C768.75,434.155 701.824,503.79 426.322,437.775C242.654,393.765 100.88,397.003 1.001,447.49L1.001,0Z" style="fill:rgb(35,39,42);"/>
            </g>
        </g>
    </g>
</svg>
